<mxfile host="app.diagrams.net" agent="Mozilla/5.0 (Windows NT 10.0; Win64; x64) AppleWebKit/537.36 (KHTML, like Gecko) Chrome/140.0.0.0 Safari/537.36" version="28.2.5">
  <diagram name="Page-1" id="26s-Ot-XKhh93Sa8F75_">
    <mxGraphModel dx="3669" dy="1817" grid="1" gridSize="10" guides="1" tooltips="1" connect="1" arrows="1" fold="1" page="1" pageScale="1" pageWidth="827" pageHeight="1169" math="0" shadow="0">
      <root>
        <mxCell id="0" />
        <mxCell id="1" parent="0" />
        <mxCell id="e43Es8xbpWXwMai0kF0n-132" value="" style="rounded=1;whiteSpace=wrap;html=1;" parent="1" vertex="1">
          <mxGeometry x="-1650" y="-930" width="2460" height="1103" as="geometry" />
        </mxCell>
        <mxCell id="e43Es8xbpWXwMai0kF0n-2" value="" style="rounded=1;whiteSpace=wrap;html=1;" parent="1" vertex="1">
          <mxGeometry x="-1189" y="-696" width="244" height="486" as="geometry" />
        </mxCell>
        <mxCell id="e43Es8xbpWXwMai0kF0n-1" value="" style="sketch=0;points=[[0,0,0],[0.25,0,0],[0.5,0,0],[0.75,0,0],[1,0,0],[0,1,0],[0.25,1,0],[0.5,1,0],[0.75,1,0],[1,1,0],[0,0.25,0],[0,0.5,0],[0,0.75,0],[1,0.25,0],[1,0.5,0],[1,0.75,0]];outlineConnect=0;fontColor=#232F3E;fillColor=#01A88D;strokeColor=#ffffff;dashed=0;verticalLabelPosition=bottom;verticalAlign=top;align=center;html=1;fontSize=12;fontStyle=0;aspect=fixed;shape=mxgraph.aws4.resourceIcon;resIcon=mxgraph.aws4.bedrock;" parent="1" vertex="1">
          <mxGeometry x="-1108.25" y="-646" width="78" height="78" as="geometry" />
        </mxCell>
        <mxCell id="e43Es8xbpWXwMai0kF0n-3" value="&lt;font style=&quot;font-size: 18px;&quot;&gt;Bedrock Knowledge base&amp;nbsp;&lt;/font&gt;" style="text;html=1;align=center;verticalAlign=middle;whiteSpace=wrap;rounded=0;" parent="1" vertex="1">
          <mxGeometry x="-1149.75" y="-556" width="161" height="32" as="geometry" />
        </mxCell>
        <mxCell id="e43Es8xbpWXwMai0kF0n-4" value="&lt;font style=&quot;font-size: 18px;&quot;&gt;Read data&amp;nbsp;&lt;/font&gt;" style="rounded=1;whiteSpace=wrap;html=1;" parent="1" vertex="1">
          <mxGeometry x="-1127.25" y="-493.5" width="122" height="63.5" as="geometry" />
        </mxCell>
        <mxCell id="e43Es8xbpWXwMai0kF0n-5" value="&lt;font style=&quot;font-size: 18px;&quot;&gt;Chunking&amp;nbsp;&lt;/font&gt;" style="rounded=1;whiteSpace=wrap;html=1;" parent="1" vertex="1">
          <mxGeometry x="-1126.25" y="-396" width="120" height="60" as="geometry" />
        </mxCell>
        <mxCell id="e43Es8xbpWXwMai0kF0n-6" value="&lt;font style=&quot;font-size: 18px;&quot;&gt;Embedding&lt;/font&gt;" style="rounded=1;whiteSpace=wrap;html=1;" parent="1" vertex="1">
          <mxGeometry x="-1126.25" y="-315" width="120" height="60" as="geometry" />
        </mxCell>
        <mxCell id="mODbw3uTjsmPOtRGQ-nw-6" value="" style="rounded=0;whiteSpace=wrap;html=1;" vertex="1" parent="1">
          <mxGeometry x="-500" y="-880" width="630" height="500" as="geometry" />
        </mxCell>
        <mxCell id="e43Es8xbpWXwMai0kF0n-8" value="" style="sketch=0;points=[[0,0,0],[0.25,0,0],[0.5,0,0],[0.75,0,0],[1,0,0],[0,1,0],[0.25,1,0],[0.5,1,0],[0.75,1,0],[1,1,0],[0,0.25,0],[0,0.5,0],[0,0.75,0],[1,0.25,0],[1,0.5,0],[1,0.75,0]];outlineConnect=0;fontColor=#232F3E;fillColor=#01A88D;strokeColor=#ffffff;dashed=0;verticalLabelPosition=bottom;verticalAlign=top;align=center;html=1;fontSize=12;fontStyle=0;aspect=fixed;shape=mxgraph.aws4.resourceIcon;resIcon=mxgraph.aws4.textract;" parent="1" vertex="1">
          <mxGeometry x="-1398.5" y="-280" width="78" height="78" as="geometry" />
        </mxCell>
        <mxCell id="e43Es8xbpWXwMai0kF0n-24" style="edgeStyle=orthogonalEdgeStyle;rounded=0;orthogonalLoop=1;jettySize=auto;html=1;exitX=1;exitY=0.5;exitDx=0;exitDy=0;exitPerimeter=0;entryX=0;entryY=0.5;entryDx=0;entryDy=0;" parent="1" source="e43Es8xbpWXwMai0kF0n-10" target="e43Es8xbpWXwMai0kF0n-4" edge="1">
          <mxGeometry relative="1" as="geometry" />
        </mxCell>
        <mxCell id="e43Es8xbpWXwMai0kF0n-10" value="" style="outlineConnect=0;dashed=0;verticalLabelPosition=bottom;verticalAlign=top;align=center;html=1;shape=mxgraph.aws3.s3;fillColor=#E05243;gradientColor=none;" parent="1" vertex="1">
          <mxGeometry x="-1408.25" y="-739" width="76.5" height="93" as="geometry" />
        </mxCell>
        <mxCell id="e43Es8xbpWXwMai0kF0n-14" value="Actor" style="shape=umlActor;verticalLabelPosition=bottom;verticalAlign=top;html=1;outlineConnect=0;" parent="1" vertex="1">
          <mxGeometry x="890" y="-785.25" width="160" height="185.5" as="geometry" />
        </mxCell>
        <mxCell id="e43Es8xbpWXwMai0kF0n-17" value="&lt;font style=&quot;font-size: 18px;&quot;&gt;Response&lt;/font&gt;" style="text;html=1;align=center;verticalAlign=middle;whiteSpace=wrap;rounded=0;" parent="1" vertex="1">
          <mxGeometry x="330" y="-755.5" width="60" height="30" as="geometry" />
        </mxCell>
        <mxCell id="e43Es8xbpWXwMai0kF0n-18" value="&lt;font style=&quot;font-size: 18px;&quot;&gt;Query&lt;/font&gt;" style="text;html=1;align=center;verticalAlign=middle;whiteSpace=wrap;rounded=0;" parent="1" vertex="1">
          <mxGeometry x="330" y="-681" width="60" height="30" as="geometry" />
        </mxCell>
        <mxCell id="e43Es8xbpWXwMai0kF0n-20" value="&lt;font style=&quot;font-size: 18px;&quot;&gt;Agentic Orchestration&lt;/font&gt;" style="text;html=1;align=center;verticalAlign=middle;whiteSpace=wrap;rounded=0;" parent="1" vertex="1">
          <mxGeometry x="-346" y="-854.5" width="180" height="40" as="geometry" />
        </mxCell>
        <mxCell id="e43Es8xbpWXwMai0kF0n-21" value="" style="outlineConnect=0;dashed=0;verticalLabelPosition=bottom;verticalAlign=top;align=center;html=1;shape=mxgraph.aws3.s3;fillColor=#E05243;gradientColor=none;" parent="1" vertex="1">
          <mxGeometry x="-1590" y="-543" width="76.5" height="93" as="geometry" />
        </mxCell>
        <mxCell id="e43Es8xbpWXwMai0kF0n-26" value="&lt;font style=&quot;font-size: 18px;&quot;&gt;To store document&amp;nbsp;&lt;/font&gt;&lt;div&gt;&lt;font style=&quot;font-size: 18px;&quot;&gt;associated with client&amp;nbsp;&lt;/font&gt;&lt;/div&gt;" style="text;html=1;align=center;verticalAlign=middle;resizable=0;points=[];autosize=1;strokeColor=none;fillColor=none;" parent="1" vertex="1">
          <mxGeometry x="-1651.75" y="-384" width="200" height="60" as="geometry" />
        </mxCell>
        <mxCell id="e43Es8xbpWXwMai0kF0n-33" value="" style="shape=datastore;whiteSpace=wrap;html=1;" parent="1" vertex="1">
          <mxGeometry x="-30" y="-260" width="550" height="230" as="geometry" />
        </mxCell>
        <mxCell id="e43Es8xbpWXwMai0kF0n-36" value="&lt;font style=&quot;font-size: 24px;&quot;&gt;Conversation History&lt;/font&gt;" style="text;html=1;align=center;verticalAlign=middle;whiteSpace=wrap;rounded=0;" parent="1" vertex="1">
          <mxGeometry x="102" y="-250" width="260" height="40" as="geometry" />
        </mxCell>
        <mxCell id="e43Es8xbpWXwMai0kF0n-40" value="&lt;font style=&quot;font-size: 18px;&quot;&gt;Raw Coversation&lt;/font&gt;" style="rounded=1;whiteSpace=wrap;html=1;" parent="1" vertex="1">
          <mxGeometry y="-150" width="120" height="60" as="geometry" />
        </mxCell>
        <mxCell id="e43Es8xbpWXwMai0kF0n-41" value="&lt;font style=&quot;font-size: 18px;&quot;&gt;Request summary&amp;nbsp;&lt;/font&gt;" style="rounded=1;whiteSpace=wrap;html=1;" parent="1" vertex="1">
          <mxGeometry x="170" y="-150" width="120" height="60" as="geometry" />
        </mxCell>
        <mxCell id="e43Es8xbpWXwMai0kF0n-42" value="&lt;font style=&quot;font-size: 18px;&quot;&gt;Response summary&lt;/font&gt;" style="rounded=1;whiteSpace=wrap;html=1;" parent="1" vertex="1">
          <mxGeometry x="340" y="-150" width="140" height="70" as="geometry" />
        </mxCell>
        <mxCell id="e43Es8xbpWXwMai0kF0n-46" value="" style="outlineConnect=0;dashed=0;verticalLabelPosition=bottom;verticalAlign=top;align=center;html=1;shape=mxgraph.aws3.ec2;fillColor=#F58534;gradientColor=none;" parent="1" vertex="1">
          <mxGeometry x="-14" y="-868.5" width="86.5" height="96" as="geometry" />
        </mxCell>
        <mxCell id="e43Es8xbpWXwMai0kF0n-48" value="" style="rounded=0;whiteSpace=wrap;html=1;" parent="1" vertex="1">
          <mxGeometry x="-780" y="-800" width="240" height="450" as="geometry" />
        </mxCell>
        <mxCell id="e43Es8xbpWXwMai0kF0n-47" value="" style="sketch=0;points=[[0,0,0],[0.25,0,0],[0.5,0,0],[0.75,0,0],[1,0,0],[0,1,0],[0.25,1,0],[0.5,1,0],[0.75,1,0],[1,1,0],[0,0.25,0],[0,0.5,0],[0,0.75,0],[1,0.25,0],[1,0.5,0],[1,0.75,0]];outlineConnect=0;fontColor=#232F3E;fillColor=#01A88D;strokeColor=#ffffff;dashed=0;verticalLabelPosition=bottom;verticalAlign=top;align=center;html=1;fontSize=12;fontStyle=0;aspect=fixed;shape=mxgraph.aws4.resourceIcon;resIcon=mxgraph.aws4.bedrock;" parent="1" vertex="1">
          <mxGeometry x="-713.75" y="-780.75" width="87.5" height="87.5" as="geometry" />
        </mxCell>
        <mxCell id="e43Es8xbpWXwMai0kF0n-49" value="&lt;font style=&quot;font-size: 18px;&quot;&gt;Guardrail&lt;/font&gt;" style="rounded=0;whiteSpace=wrap;html=1;" parent="1" vertex="1">
          <mxGeometry x="-735" y="-618" width="120" height="60" as="geometry" />
        </mxCell>
        <mxCell id="e43Es8xbpWXwMai0kF0n-50" value="&lt;font style=&quot;font-size: 18px;&quot;&gt;LLM : Claude sonnet 4.1&lt;/font&gt;" style="rounded=1;whiteSpace=wrap;html=1;" parent="1" vertex="1">
          <mxGeometry x="-735" y="-536" width="130" height="60" as="geometry" />
        </mxCell>
        <mxCell id="e43Es8xbpWXwMai0kF0n-68" style="edgeStyle=orthogonalEdgeStyle;rounded=0;orthogonalLoop=1;jettySize=auto;html=1;exitX=0.5;exitY=1;exitDx=0;exitDy=0;entryX=0.5;entryY=1;entryDx=0;entryDy=0;" parent="1" source="e43Es8xbpWXwMai0kF0n-51" target="e43Es8xbpWXwMai0kF0n-6" edge="1">
          <mxGeometry relative="1" as="geometry">
            <mxPoint x="-450" y="-20" as="targetPoint" />
          </mxGeometry>
        </mxCell>
        <mxCell id="e43Es8xbpWXwMai0kF0n-51" value="&lt;font style=&quot;font-size: 18px;&quot;&gt;Embedding Model&amp;nbsp;&amp;nbsp;&lt;/font&gt;" style="rounded=1;whiteSpace=wrap;html=1;" parent="1" vertex="1">
          <mxGeometry x="-730" y="-450" width="120" height="60" as="geometry" />
        </mxCell>
        <mxCell id="e43Es8xbpWXwMai0kF0n-53" value="&lt;font style=&quot;font-size: 18px;&quot;&gt;AWS&amp;nbsp; Bedrock&amp;nbsp; services&lt;/font&gt;" style="text;html=1;align=center;verticalAlign=middle;whiteSpace=wrap;rounded=0;" parent="1" vertex="1">
          <mxGeometry x="-775" y="-665" width="230" height="30" as="geometry" />
        </mxCell>
        <mxCell id="e43Es8xbpWXwMai0kF0n-103" style="edgeStyle=orthogonalEdgeStyle;rounded=0;orthogonalLoop=1;jettySize=auto;html=1;exitX=1;exitY=0.5;exitDx=0;exitDy=0;exitPerimeter=0;entryX=0.5;entryY=1;entryDx=0;entryDy=0;" parent="1" source="e43Es8xbpWXwMai0kF0n-64" target="e43Es8xbpWXwMai0kF0n-70" edge="1">
          <mxGeometry relative="1" as="geometry" />
        </mxCell>
        <mxCell id="e43Es8xbpWXwMai0kF0n-64" value="&lt;font style=&quot;font-size: 18px;&quot;&gt;Vectoor db&lt;/font&gt;" style="strokeWidth=2;html=1;shape=mxgraph.flowchart.database;whiteSpace=wrap;" parent="1" vertex="1">
          <mxGeometry x="-900" y="-330" width="260" height="190" as="geometry" />
        </mxCell>
        <mxCell id="e43Es8xbpWXwMai0kF0n-63" value="" style="sketch=0;points=[[0,0,0],[0.25,0,0],[0.5,0,0],[0.75,0,0],[1,0,0],[0,1,0],[0.25,1,0],[0.5,1,0],[0.75,1,0],[1,1,0],[0,0.25,0],[0,0.5,0],[0,0.75,0],[1,0.25,0],[1,0.5,0],[1,0.75,0]];outlineConnect=0;fontColor=#232F3E;fillColor=#8C4FFF;strokeColor=#ffffff;dashed=0;verticalLabelPosition=bottom;verticalAlign=top;align=center;html=1;fontSize=12;fontStyle=0;aspect=fixed;shape=mxgraph.aws4.resourceIcon;resIcon=mxgraph.aws4.elasticsearch_service;" parent="1" vertex="1">
          <mxGeometry x="-790" y="-320" width="40" height="40" as="geometry" />
        </mxCell>
        <mxCell id="e43Es8xbpWXwMai0kF0n-65" value="&lt;font style=&quot;font-size: 18px;&quot;&gt;Opensearch AWS&lt;/font&gt;" style="text;html=1;align=center;verticalAlign=middle;whiteSpace=wrap;rounded=0;" parent="1" vertex="1">
          <mxGeometry x="-860" y="-230" width="200" height="30" as="geometry" />
        </mxCell>
        <mxCell id="e43Es8xbpWXwMai0kF0n-66" value="&lt;font style=&quot;font-size: 18px;&quot;&gt;embedding&lt;/font&gt;" style="text;html=1;align=center;verticalAlign=middle;whiteSpace=wrap;rounded=0;" parent="1" vertex="1">
          <mxGeometry x="-800" y="-190" width="60" height="30" as="geometry" />
        </mxCell>
        <mxCell id="e43Es8xbpWXwMai0kF0n-70" value="&lt;font style=&quot;font-size: 18px;&quot;&gt;RAG Agent&lt;/font&gt;" style="rounded=1;whiteSpace=wrap;html=1;" parent="1" vertex="1">
          <mxGeometry x="-476" y="-637" width="160" height="70" as="geometry" />
        </mxCell>
        <mxCell id="e43Es8xbpWXwMai0kF0n-71" value="&lt;span style=&quot;font-size: 18px;&quot;&gt;Finance Agent&amp;nbsp;&lt;/span&gt;" style="rounded=1;whiteSpace=wrap;html=1;" parent="1" vertex="1">
          <mxGeometry x="-344.25" y="-496.75" width="162" height="70" as="geometry" />
        </mxCell>
        <mxCell id="e43Es8xbpWXwMai0kF0n-72" value="&lt;span style=&quot;font-size: 18px;&quot;&gt;Web search&lt;/span&gt;" style="rounded=1;whiteSpace=wrap;html=1;" parent="1" vertex="1">
          <mxGeometry x="-216" y="-637" width="150" height="70" as="geometry" />
        </mxCell>
        <mxCell id="e43Es8xbpWXwMai0kF0n-75" style="edgeStyle=orthogonalEdgeStyle;rounded=0;orthogonalLoop=1;jettySize=auto;html=1;exitX=0.5;exitY=1;exitDx=0;exitDy=0;entryX=0.5;entryY=0;entryDx=0;entryDy=0;" parent="1" source="e43Es8xbpWXwMai0kF0n-74" target="e43Es8xbpWXwMai0kF0n-70" edge="1">
          <mxGeometry relative="1" as="geometry" />
        </mxCell>
        <mxCell id="e43Es8xbpWXwMai0kF0n-76" style="edgeStyle=orthogonalEdgeStyle;rounded=0;orthogonalLoop=1;jettySize=auto;html=1;exitX=0.5;exitY=1;exitDx=0;exitDy=0;entryX=0.5;entryY=0;entryDx=0;entryDy=0;" parent="1" source="e43Es8xbpWXwMai0kF0n-74" target="e43Es8xbpWXwMai0kF0n-72" edge="1">
          <mxGeometry relative="1" as="geometry" />
        </mxCell>
        <mxCell id="e43Es8xbpWXwMai0kF0n-74" value="&lt;font style=&quot;font-size: 18px;&quot;&gt;Supervisor&lt;/font&gt;" style="rounded=0;whiteSpace=wrap;html=1;" parent="1" vertex="1">
          <mxGeometry x="-326" y="-781.5" width="125.5" height="60" as="geometry" />
        </mxCell>
        <mxCell id="e43Es8xbpWXwMai0kF0n-77" style="edgeStyle=orthogonalEdgeStyle;rounded=0;orthogonalLoop=1;jettySize=auto;html=1;exitX=0.5;exitY=1;exitDx=0;exitDy=0;entryX=0.5;entryY=0;entryDx=0;entryDy=0;" parent="1" source="e43Es8xbpWXwMai0kF0n-74" target="e43Es8xbpWXwMai0kF0n-71" edge="1">
          <mxGeometry relative="1" as="geometry" />
        </mxCell>
        <mxCell id="e43Es8xbpWXwMai0kF0n-78" value="&lt;font style=&quot;font-size: 18px;&quot;&gt;FastAPI&lt;/font&gt;" style="text;html=1;align=center;verticalAlign=middle;whiteSpace=wrap;rounded=0;" parent="1" vertex="1">
          <mxGeometry x="-413" y="-849.5" width="60" height="30" as="geometry" />
        </mxCell>
        <mxCell id="e43Es8xbpWXwMai0kF0n-83" value="" style="sketch=0;points=[[0,0,0],[0.25,0,0],[0.5,0,0],[0.75,0,0],[1,0,0],[0,1,0],[0.25,1,0],[0.5,1,0],[0.75,1,0],[1,1,0],[0,0.25,0],[0,0.5,0],[0,0.75,0],[1,0.25,0],[1,0.5,0],[1,0.75,0]];outlineConnect=0;fontColor=#232F3E;fillColor=#DD344C;strokeColor=#ffffff;dashed=0;verticalLabelPosition=bottom;verticalAlign=top;align=center;html=1;fontSize=12;fontStyle=0;aspect=fixed;shape=mxgraph.aws4.resourceIcon;resIcon=mxgraph.aws4.amplify;" parent="1" vertex="1">
          <mxGeometry x="430" y="-735" width="78" height="78" as="geometry" />
        </mxCell>
        <mxCell id="e43Es8xbpWXwMai0kF0n-96" style="edgeStyle=orthogonalEdgeStyle;rounded=0;orthogonalLoop=1;jettySize=auto;html=1;exitX=1;exitY=0.5;exitDx=0;exitDy=0;" parent="1" source="e43Es8xbpWXwMai0kF0n-94" edge="1">
          <mxGeometry relative="1" as="geometry">
            <mxPoint x="-1590" y="-496.6666666666665" as="targetPoint" />
          </mxGeometry>
        </mxCell>
        <mxCell id="e43Es8xbpWXwMai0kF0n-94" value="" style="rounded=1;whiteSpace=wrap;html=1;" parent="1" vertex="1">
          <mxGeometry x="-1960" y="-584" width="240" height="176" as="geometry" />
        </mxCell>
        <mxCell id="e43Es8xbpWXwMai0kF0n-91" value="&lt;font style=&quot;font-size: 18px;&quot;&gt;Textract&lt;/font&gt;" style="text;html=1;align=center;verticalAlign=middle;whiteSpace=wrap;rounded=0;" parent="1" vertex="1">
          <mxGeometry x="-1398.5" y="-190" width="60" height="30" as="geometry" />
        </mxCell>
        <mxCell id="e43Es8xbpWXwMai0kF0n-92" value="&lt;font style=&quot;font-size: 18px;&quot;&gt;S3 bucket&lt;/font&gt;" style="text;html=1;align=center;verticalAlign=middle;resizable=0;points=[];autosize=1;strokeColor=none;fillColor=none;" parent="1" vertex="1">
          <mxGeometry x="-1418.5" y="-646" width="100" height="40" as="geometry" />
        </mxCell>
        <mxCell id="e43Es8xbpWXwMai0kF0n-93" value="&lt;font style=&quot;font-size: 18px;&quot;&gt;S3 bucket&lt;/font&gt;" style="text;html=1;align=center;verticalAlign=middle;resizable=0;points=[];autosize=1;strokeColor=none;fillColor=none;" parent="1" vertex="1">
          <mxGeometry x="-1598.5" y="-420" width="100" height="40" as="geometry" />
        </mxCell>
        <mxCell id="e43Es8xbpWXwMai0kF0n-27" value="&lt;span style=&quot;color: rgb(31, 31, 31); font-family: &amp;quot;Google Sans&amp;quot;; font-style: normal; font-variant-ligatures: normal; font-variant-caps: normal; font-weight: 400; letter-spacing: normal; orphans: 2; text-align: left; text-indent: 0px; text-transform: none; widows: 2; word-spacing: 0px; -webkit-text-stroke-width: 0px; white-space: pre-wrap; background-color: rgb(255, 255, 255); text-decoration-thickness: initial; text-decoration-style: initial; text-decoration-color: initial; float: none; display: inline !important;&quot;&gt;&lt;font style=&quot;font-size: 24px;&quot;&gt;Research Reports&lt;br&gt;Product Notes&lt;br&gt;Analyst Research&lt;br&gt;Articles&lt;/font&gt;&lt;/span&gt;" style="text;whiteSpace=wrap;html=1;" parent="1" vertex="1">
          <mxGeometry x="-1950" y="-563" width="180" height="150" as="geometry" />
        </mxCell>
        <mxCell id="e43Es8xbpWXwMai0kF0n-99" style="edgeStyle=orthogonalEdgeStyle;rounded=0;orthogonalLoop=1;jettySize=auto;html=1;exitX=0.5;exitY=1;exitDx=0;exitDy=0;entryX=0.005;entryY=0.584;entryDx=0;entryDy=0;entryPerimeter=0;" parent="1" source="e43Es8xbpWXwMai0kF0n-2" target="e43Es8xbpWXwMai0kF0n-64" edge="1">
          <mxGeometry relative="1" as="geometry" />
        </mxCell>
        <mxCell id="e43Es8xbpWXwMai0kF0n-102" style="edgeStyle=orthogonalEdgeStyle;rounded=0;orthogonalLoop=1;jettySize=auto;html=1;exitX=1;exitY=0.25;exitDx=0;exitDy=0;entryX=0;entryY=0.5;entryDx=0;entryDy=0;" parent="1" source="e43Es8xbpWXwMai0kF0n-48" target="mODbw3uTjsmPOtRGQ-nw-6" edge="1">
          <mxGeometry relative="1" as="geometry">
            <mxPoint x="-485" y="-660.5" as="targetPoint" />
          </mxGeometry>
        </mxCell>
        <mxCell id="e43Es8xbpWXwMai0kF0n-104" style="edgeStyle=orthogonalEdgeStyle;rounded=0;orthogonalLoop=1;jettySize=auto;html=1;exitX=0;exitY=0.3;exitDx=0;exitDy=0;entryX=0.623;entryY=0.998;entryDx=0;entryDy=0;entryPerimeter=0;" parent="1" source="e43Es8xbpWXwMai0kF0n-33" target="mODbw3uTjsmPOtRGQ-nw-6" edge="1">
          <mxGeometry relative="1" as="geometry">
            <mxPoint x="-63.5" y="-369.9999999999998" as="targetPoint" />
          </mxGeometry>
        </mxCell>
        <mxCell id="e43Es8xbpWXwMai0kF0n-12" value="&lt;font style=&quot;font-size: 18px;&quot;&gt;Instance&amp;nbsp; EC2&amp;nbsp;&lt;/font&gt;" style="text;html=1;align=center;verticalAlign=middle;whiteSpace=wrap;rounded=0;" parent="1" vertex="1">
          <mxGeometry x="-40.5" y="-765" width="160.5" height="30" as="geometry" />
        </mxCell>
        <mxCell id="e43Es8xbpWXwMai0kF0n-110" value="&lt;font style=&quot;font-size: 18px;&quot;&gt;AWS Amplify&lt;/font&gt;" style="text;html=1;align=center;verticalAlign=middle;resizable=0;points=[];autosize=1;strokeColor=none;fillColor=none;" parent="1" vertex="1">
          <mxGeometry x="404" y="-646" width="130" height="40" as="geometry" />
        </mxCell>
        <mxCell id="e43Es8xbpWXwMai0kF0n-120" style="edgeStyle=orthogonalEdgeStyle;rounded=0;orthogonalLoop=1;jettySize=auto;html=1;exitX=0;exitY=0.75;exitDx=0;exitDy=0;exitPerimeter=0;entryX=1.004;entryY=0.41;entryDx=0;entryDy=0;entryPerimeter=0;" parent="1" source="e43Es8xbpWXwMai0kF0n-112" target="mODbw3uTjsmPOtRGQ-nw-6" edge="1">
          <mxGeometry relative="1" as="geometry">
            <mxPoint x="10" y="-621.9999999999998" as="targetPoint" />
          </mxGeometry>
        </mxCell>
        <mxCell id="e43Es8xbpWXwMai0kF0n-112" value="" style="sketch=0;points=[[0,0,0],[0.25,0,0],[0.5,0,0],[0.75,0,0],[1,0,0],[0,1,0],[0.25,1,0],[0.5,1,0],[0.75,1,0],[1,1,0],[0,0.25,0],[0,0.5,0],[0,0.75,0],[1,0.25,0],[1,0.5,0],[1,0.75,0]];outlineConnect=0;fontColor=#232F3E;fillColor=#E7157B;strokeColor=#ffffff;dashed=0;verticalLabelPosition=bottom;verticalAlign=top;align=center;html=1;fontSize=12;fontStyle=0;aspect=fixed;shape=mxgraph.aws4.resourceIcon;resIcon=mxgraph.aws4.api_gateway;" parent="1" vertex="1">
          <mxGeometry x="230" y="-735" width="78" height="78" as="geometry" />
        </mxCell>
        <mxCell id="e43Es8xbpWXwMai0kF0n-113" value="&lt;font style=&quot;font-size: 14px;&quot;&gt;API Gateway&lt;/font&gt;" style="text;html=1;align=center;verticalAlign=middle;resizable=0;points=[];autosize=1;strokeColor=none;fillColor=none;" parent="1" vertex="1">
          <mxGeometry x="214" y="-641" width="110" height="30" as="geometry" />
        </mxCell>
        <mxCell id="e43Es8xbpWXwMai0kF0n-114" style="edgeStyle=orthogonalEdgeStyle;rounded=0;orthogonalLoop=1;jettySize=auto;html=1;exitX=1;exitY=0.25;exitDx=0;exitDy=0;exitPerimeter=0;entryX=0;entryY=0.25;entryDx=0;entryDy=0;entryPerimeter=0;" parent="1" source="e43Es8xbpWXwMai0kF0n-112" target="e43Es8xbpWXwMai0kF0n-83" edge="1">
          <mxGeometry relative="1" as="geometry" />
        </mxCell>
        <mxCell id="e43Es8xbpWXwMai0kF0n-116" style="edgeStyle=orthogonalEdgeStyle;rounded=0;orthogonalLoop=1;jettySize=auto;html=1;exitX=0;exitY=0.75;exitDx=0;exitDy=0;exitPerimeter=0;entryX=1;entryY=0.75;entryDx=0;entryDy=0;entryPerimeter=0;" parent="1" source="e43Es8xbpWXwMai0kF0n-83" target="e43Es8xbpWXwMai0kF0n-112" edge="1">
          <mxGeometry relative="1" as="geometry" />
        </mxCell>
        <mxCell id="e43Es8xbpWXwMai0kF0n-117" style="edgeStyle=orthogonalEdgeStyle;rounded=0;orthogonalLoop=1;jettySize=auto;html=1;exitX=1;exitY=0.25;exitDx=0;exitDy=0;exitPerimeter=0;entryX=0.229;entryY=0.365;entryDx=0;entryDy=0;entryPerimeter=0;" parent="1" source="e43Es8xbpWXwMai0kF0n-83" target="e43Es8xbpWXwMai0kF0n-14" edge="1">
          <mxGeometry relative="1" as="geometry" />
        </mxCell>
        <mxCell id="e43Es8xbpWXwMai0kF0n-119" style="edgeStyle=orthogonalEdgeStyle;rounded=0;orthogonalLoop=1;jettySize=auto;html=1;exitX=1;exitY=0.25;exitDx=0;exitDy=0;entryX=0;entryY=0.5;entryDx=0;entryDy=0;entryPerimeter=0;" parent="1" source="mODbw3uTjsmPOtRGQ-nw-6" target="e43Es8xbpWXwMai0kF0n-112" edge="1">
          <mxGeometry relative="1" as="geometry">
            <Array as="points">
              <mxPoint x="130" y="-696" />
            </Array>
          </mxGeometry>
        </mxCell>
        <mxCell id="e43Es8xbpWXwMai0kF0n-122" value="" style="shape=flexArrow;endArrow=classic;html=1;rounded=0;endWidth=62.53101736972706;endSize=19.153846153846153;width=67.6923076923077;" parent="1" edge="1">
          <mxGeometry width="50" height="50" relative="1" as="geometry">
            <mxPoint x="-1970" y="-990" as="sourcePoint" />
            <mxPoint x="730" y="-990" as="targetPoint" />
          </mxGeometry>
        </mxCell>
        <mxCell id="e43Es8xbpWXwMai0kF0n-125" value="&lt;font style=&quot;font-size: 18px;&quot;&gt;Data Pre-processing&lt;/font&gt;" style="edgeLabel;html=1;align=center;verticalAlign=middle;resizable=0;points=[];" parent="e43Es8xbpWXwMai0kF0n-122" vertex="1" connectable="0">
          <mxGeometry x="-0.9474" y="-7" relative="1" as="geometry">
            <mxPoint x="368" y="-7" as="offset" />
          </mxGeometry>
        </mxCell>
        <mxCell id="e43Es8xbpWXwMai0kF0n-128" value="&lt;font style=&quot;font-size: 18px;&quot;&gt;Bedrock Model Layer&lt;/font&gt;" style="edgeLabel;html=1;align=center;verticalAlign=middle;resizable=0;points=[];" parent="e43Es8xbpWXwMai0kF0n-122" vertex="1" connectable="0">
          <mxGeometry x="0.2124" y="-5" relative="1" as="geometry">
            <mxPoint x="-317" y="-5" as="offset" />
          </mxGeometry>
        </mxCell>
        <mxCell id="e43Es8xbpWXwMai0kF0n-129" value="&lt;font style=&quot;font-size: 18px;&quot;&gt;Orchestration &amp;amp;&lt;/font&gt;&lt;div&gt;&lt;font size=&quot;3&quot;&gt;API Layer&lt;/font&gt;&lt;/div&gt;" style="edgeLabel;html=1;align=center;verticalAlign=middle;resizable=0;points=[];" parent="e43Es8xbpWXwMai0kF0n-122" vertex="1" connectable="0">
          <mxGeometry x="0.3621" y="6" relative="1" as="geometry">
            <mxPoint x="-128" y="6" as="offset" />
          </mxGeometry>
        </mxCell>
        <mxCell id="e43Es8xbpWXwMai0kF0n-130" value="&lt;font style=&quot;font-size: 18px;&quot;&gt;User Interface&lt;/font&gt;" style="edgeLabel;html=1;align=center;verticalAlign=middle;resizable=0;points=[];" parent="e43Es8xbpWXwMai0kF0n-122" vertex="1" connectable="0">
          <mxGeometry x="0.8827" y="-4" relative="1" as="geometry">
            <mxPoint x="-102" y="-3" as="offset" />
          </mxGeometry>
        </mxCell>
        <mxCell id="e43Es8xbpWXwMai0kF0n-126" value="&lt;font style=&quot;font-size: 18px;&quot;&gt;Data processing&lt;/font&gt;" style="edgeLabel;html=1;align=center;verticalAlign=middle;resizable=0;points=[];" parent="1" vertex="1" connectable="0">
          <mxGeometry x="-1090" y="-990" as="geometry" />
        </mxCell>
        <mxCell id="e43Es8xbpWXwMai0kF0n-127" value="&lt;font style=&quot;font-size: 18px;&quot;&gt;Data Ingestion&lt;/font&gt;&lt;div&gt;&lt;font style=&quot;font-size: 18px;&quot;&gt;&amp;amp; Vectorisation&lt;/font&gt;&lt;/div&gt;" style="edgeLabel;html=1;align=center;verticalAlign=middle;resizable=0;points=[];" parent="1" vertex="1" connectable="0">
          <mxGeometry x="-880" y="-990" as="geometry" />
        </mxCell>
        <mxCell id="e43Es8xbpWXwMai0kF0n-135" value="" style="shape=image;verticalLabelPosition=bottom;labelBackgroundColor=default;verticalAlign=top;aspect=fixed;imageAspect=0;image=data:image/png,iVBORw0KGgoAAAANSUhEUgAAADAAAAAwCAYAAABXAvmHAAAJ2ElEQVR4AexXC3CU1RX+zk2IhKiAaPFZqdmNlZFsIKPSwm4WGW0Zy6ilWHSUqlNi0Wp1qlKtRaeMjqWttmgrYNX6Lmh91ydj82yLmrqbYMZkF0QLFooGi7wC2Xv6nX+zS6KRqqigk3/ud8+555577jn33P/+93f4nD/9AezuBPZnoD8Du7gC/VtoFxdwl4f3Z2CXl3AXDXyxMlBZWTkgVF41uWxU1d2hSKwtXB5dXxaJdYTKo63EwtDo6MieCxaOxK4nFlDnuz3lOd7k1h+qiF47cuTIopw8R0Pl8UPD5bEbA50etkuPjh0WjkTncf72UCTWSZ3NpG3hSPT20orY13PjjeYzEI/HC//bVdImoo+p0zMFKIPIEAWGishRxAzxaApXRE+ygQZVfIO02kNvC4Um7UU+X2wxKP8DBdWicuW2omGTyPcqIv6HEFwMoNqpKyGFOeictgByIUTC9KMIgmLSMsrOcV7rSsfEQ+h+8gGsfAd7U+krdHiFwv9aIdMhcqIKzqTuvYQHZCBUbxsxIj4QfKj/FxIIpESKNx1nfA7vdg0aTfneuTbHRfN8N8MFmGgs6ZvtidqXLEtOdRFEBit0I0QvF7go1I9V0VOg+I0Cq9CFYH7w2RFAouYdRebodLKuNJ1suDSdrL07lah9Lp2ouzeVrDuTxhZQn8UNLxycqSLD4h9nFRR1Eg+YfOXGG8sJ3zUKZNtZHhhRER8i0NHgI4LHSDRTuD/HyKHkrcxOJep/2Z6saUg1NyxNJ+ofTTXXXZJurh+xvLlmmSkY8gFYI51sfMVoX1AULM7LBUcZT8MvAn6t8U4zcaM5ZJAZZ7yqzDfK1RtzcGXloIBnVeh9jCtdQBZe3aMBdVpsNIC6rQH9P1WvAHamq46pyymo27eb9VzZYBsp3NhQj/eAhoMAALlLFau5ygMGZfY5Ft2PABOMtQzJ5uK/Gu/Ev0zd7cZzYeaEK2Jn2LuUbfddc57eHXbSlEZic0KRqofDo2LPlFZE7wtVVF1XkMl8M6+pyvmzLRF9POD4omGfjWONP6IiFgbccDrXwXS/IiL1Jhf13CLGASoSBEAHnk6nn+o0advLjW/Cya+MF5FhUNy7oatkVTgSWxCKxE6knOqse5ReglB57Grx0kLhVdyfp8DhRKdyuqheoZCbeozLswN98XN0J5vujATbqEAlcFSARirSV20gBW2OM1pWGd+f/CjjvSDYPsYb0onan0JklgId1ia+RFTT1jPhSLStLFJ1Ktv5Ql+zfLgierYIrgHoNjQtItU0Po6UafeTAZmDPp7m5mc30cNgCzDQIAA6Ny5QFck63qVBBlTxNUydWuC3B+8LDxxs35bxTwa6OypNJWrnFm13hyv0LIr/zExsJmWREGUP9gwiHwAglyB4tDNT6Ce2J2pvXZ6o+xvpi6lkwxMFIrcH3X1VXrLbyGHsCB6xGWQzoILA8bZl9csEWM+VHRxOrRvlIBNgD/vfaGlYb+x70dpaszGdrL8nlaz7jhZ3HgTBVdRhYsBPgc4mHxQX1OAh6RGcLNwOqRVNjW/gPY/3mdK8yEmvj5Z6fYJ9NC4DC4foZActg2JLUee6JsqteIXYduJEmfEeGgTAD1yv7WOKfSG9dOmGVKLuWsAvCfoFdiPgmsC2SyCifd0WcMABluZuPiDxeLwwA/wkaLASnzmcJF+WL6v7F6CJQOD1SlKB6tLW1tacTcajwXZSjyki8lXqoMCJnf/GfhgI4PYzRdp4m1SJfADMUHa/Uml4OLXmprLI8YccOXrcwWFeHVZ3+CVOZCKdYhwcJpgY6nFkUsLiLAsQQQX4eJezxwaLCoLthOwHj68LEq8malayK19CkdisUKQqwVPnKt6TxpoP9sKHyqNjwuWxO6hYSdAEFhk15LYQnHPcY5o9TVRmKrpWeV+wGip0TMdzhc8XkT/aIPCIdHtvLs/y2VoE2fcg2wRTEKx4dxN7bXvrJXBb5dpO9H2rL4qtHBehzhwR/3fzQbv8OhFposHvUc41xAuuMzPbeEM+gLaXaziBxjlJrap2WSf5LQp5xKsel0rWz9/q/WXweFhFTmtP1PIrHGgFlbU9MI+6S8TLPYMLNz8fdHRXwXZyerX180Wg8wMWdnflSerI4TdzvukCfRqq7+Q7yCj8qxCZhc0lsba2xu7rCZeSffnCq8FS3jfiRV1vl2wXN5T8IN6JTl3e0tBkSnZipFrqvp1O1D5g7fdiebLuR8ub609ob6k9q6mpqfuLukMrxbuN9ZOe3J58fvWOnm7ugQcyad7B2pP1k1LN9UPd1sy+8L5UB3YOTicbjrLjNffR6x6BfAZyAqO2Wit5uTN+d8JWOtXSsMJOoQ/yo88APkh5T5Tv8QHoLRihC3GFLsBTRIpYR7QSzxMzHRUaqXCp3oH8T8KestJ0cC43eTsPk+sI+/sL0bf9CfvoTqDsBn40cS6ZamxDOwOZofPQ6ytL5d1XPB6Fxxg4HIg1KJTzIOjEYDo0l7DylpPz0YYCjKViGxQL6f5KBnKF3oxhprE7ITPRSCyTGViL4RjJjJTKRdjAMGoCvxR2cwbk++igu3bfnwVgKAO5DgOwmgMWM5hJuhjBnxP7PtPC7X0IfbiMaIZDCye/hgA8sh/RAtS7QMBKTkOGKbI9dywDsHPfttJU8k9iPdbqQtxJTOG7MoTqn0pRhdDZUcRFnOtZCF7nRHOhOJr4Pbowk21AcDzAlsN9+QAoCArT1Yw14D8AzgaQ+9gMo4HpxIPYhrc5QZK4WefjHE50jN6FEup+5KK/w2G0MZG4kPYWYz7W0kgz8VvOdQIdLSC1xYzLD3CBXICNHHMgZRPZdx93zuvvC4CDIdfAMxt3ohhHUvnHlNlKkATFxlgKL6CR29n/ArZgAx1YRfyDAT1CuoC4kfz1pD8nfkGY7H46+zj5f5JuRCHeoI0lxDxangqHA0hzJUnb03AejqHzdTkhx0yjvAMZXGYyc8Zon5Dp2MTBN+DfCHHQNHgsIc30oWx2DqH8OPafTFpNXEx+FunPiMsJk02js98iP5r0/VlTbKL8fiLOBazg3ItEaIUDepQJKMBJfLn/YzKb2OhOwYx0BcZm4gQU4SAqn0+zTxC9LlyUf5zCfwncSVvTMAjDpRpnELUfZIiBncz+F3P9HyqAnLJRORfraOQWBjQZazCMaY9AYKtrZ/ND1EkSK+hQB2HX8y1sryf/GvXsr+xPbM9hewrHHkFbXybOpr1FlnH2faTykQPoaV3sXZmBZq7IrXRiFjGFqCBK6dAwopj8IGI/8kdQbzz504nZbD/EA+O1nvY+Dr9LAXycCT/pMZ9OAJ+0lzux1x/AThbnM+nqz8Bnssw7meRzn4H/AQAA///+ABFrAAAABklEQVQDAMTt0I5lTzr0AAAAAElFTkSuQmCC;" parent="1" vertex="1">
          <mxGeometry x="-1570" y="-885.5" width="130" height="130" as="geometry" />
        </mxCell>
        <mxCell id="e43Es8xbpWXwMai0kF0n-145" value="&lt;font style=&quot;font-size: 18px;&quot;&gt;Data Source&lt;/font&gt;" style="text;html=1;align=center;verticalAlign=middle;whiteSpace=wrap;rounded=0;" parent="1" vertex="1">
          <mxGeometry x="-1940" y="-1005" width="60" height="30" as="geometry" />
        </mxCell>
        <mxCell id="mODbw3uTjsmPOtRGQ-nw-2" value="" style="edgeStyle=orthogonalEdgeStyle;rounded=0;orthogonalLoop=1;jettySize=auto;html=1;" edge="1" parent="1" target="mODbw3uTjsmPOtRGQ-nw-1">
          <mxGeometry relative="1" as="geometry">
            <mxPoint x="960" y="-663" as="sourcePoint" />
            <mxPoint x="290" y="-696" as="targetPoint" />
          </mxGeometry>
        </mxCell>
        <mxCell id="mODbw3uTjsmPOtRGQ-nw-1" value="" style="points=[];aspect=fixed;html=1;align=center;shadow=0;dashed=0;fillColor=#FF6A00;strokeColor=none;shape=mxgraph.alibaba_cloud.cloud_auth;" vertex="1" parent="1">
          <mxGeometry x="590" y="-697.5" width="104.4" height="95" as="geometry" />
        </mxCell>
        <mxCell id="mODbw3uTjsmPOtRGQ-nw-3" value="&lt;font style=&quot;font-size: 18px;&quot;&gt;BAM / SSO auuth&lt;/font&gt;" style="text;html=1;align=center;verticalAlign=middle;whiteSpace=wrap;rounded=0;" vertex="1" parent="1">
          <mxGeometry x="580" y="-583" width="130" height="48" as="geometry" />
        </mxCell>
        <mxCell id="mODbw3uTjsmPOtRGQ-nw-4" style="edgeStyle=orthogonalEdgeStyle;rounded=0;orthogonalLoop=1;jettySize=auto;html=1;entryX=1;entryY=0.5;entryDx=0;entryDy=0;entryPerimeter=0;" edge="1" parent="1" source="mODbw3uTjsmPOtRGQ-nw-1" target="e43Es8xbpWXwMai0kF0n-83">
          <mxGeometry relative="1" as="geometry" />
        </mxCell>
        <mxCell id="mODbw3uTjsmPOtRGQ-nw-5" value="" style="outlineConnect=0;dashed=0;verticalLabelPosition=bottom;verticalAlign=top;align=center;html=1;shape=mxgraph.aws3.add_on;fillColor=#759C3E;gradientColor=none;" vertex="1" parent="1">
          <mxGeometry x="30" y="-696" width="49.5" height="27" as="geometry" />
        </mxCell>
        <mxCell id="mODbw3uTjsmPOtRGQ-nw-10" value="&lt;font style=&quot;font-size: 18px;&quot;&gt;Token validation&lt;/font&gt;" style="text;html=1;align=center;verticalAlign=middle;whiteSpace=wrap;rounded=0;" vertex="1" parent="1">
          <mxGeometry x="-11" y="-657" width="142" height="30" as="geometry" />
        </mxCell>
        <mxCell id="mODbw3uTjsmPOtRGQ-nw-12" style="edgeStyle=orthogonalEdgeStyle;rounded=0;orthogonalLoop=1;jettySize=auto;html=1;exitX=0.87;exitY=1.004;exitDx=0;exitDy=0;entryX=0.15;entryY=0.05;entryDx=0;entryDy=0;entryPerimeter=0;exitPerimeter=0;" edge="1" parent="1" source="mODbw3uTjsmPOtRGQ-nw-6" target="e43Es8xbpWXwMai0kF0n-33">
          <mxGeometry relative="1" as="geometry">
            <Array as="points">
              <mxPoint x="48" y="-380" />
              <mxPoint x="53" y="-380" />
            </Array>
          </mxGeometry>
        </mxCell>
        <mxCell id="mODbw3uTjsmPOtRGQ-nw-14" style="edgeStyle=orthogonalEdgeStyle;rounded=0;orthogonalLoop=1;jettySize=auto;html=1;exitX=0.5;exitY=0;exitDx=0;exitDy=0;" edge="1" parent="1" source="mODbw3uTjsmPOtRGQ-nw-13" target="e43Es8xbpWXwMai0kF0n-71">
          <mxGeometry relative="1" as="geometry" />
        </mxCell>
        <mxCell id="mODbw3uTjsmPOtRGQ-nw-13" value="&lt;font style=&quot;font-size: 18px;&quot;&gt;External API&amp;nbsp;&lt;br&gt;(Yfinance, Bloomberg api etc )&lt;/font&gt;" style="rounded=1;whiteSpace=wrap;html=1;" vertex="1" parent="1">
          <mxGeometry x="-373.25" y="-170" width="220" height="110" as="geometry" />
        </mxCell>
        <mxCell id="mODbw3uTjsmPOtRGQ-nw-16" style="edgeStyle=orthogonalEdgeStyle;rounded=0;orthogonalLoop=1;jettySize=auto;html=1;exitX=0;exitY=0.5;exitDx=0;exitDy=0;" edge="1" parent="1" source="mODbw3uTjsmPOtRGQ-nw-15" target="e43Es8xbpWXwMai0kF0n-72">
          <mxGeometry relative="1" as="geometry" />
        </mxCell>
        <mxCell id="mODbw3uTjsmPOtRGQ-nw-15" value="&lt;font style=&quot;font-size: 18px;&quot;&gt;SERPER API (SDK )&lt;br&gt;( Google&amp;nbsp; search api , google news api)&lt;/font&gt;" style="rounded=1;whiteSpace=wrap;html=1;" vertex="1" parent="1">
          <mxGeometry x="204" y="-510" width="186" height="90" as="geometry" />
        </mxCell>
        <mxCell id="mODbw3uTjsmPOtRGQ-nw-17" value="" style="sketch=0;points=[[0,0,0],[0.25,0,0],[0.5,0,0],[0.75,0,0],[1,0,0],[0,1,0],[0.25,1,0],[0.5,1,0],[0.75,1,0],[1,1,0],[0,0.25,0],[0,0.5,0],[0,0.75,0],[1,0.25,0],[1,0.5,0],[1,0.75,0]];outlineConnect=0;fontColor=#232F3E;fillColor=#01A88D;strokeColor=#ffffff;dashed=0;verticalLabelPosition=bottom;verticalAlign=top;align=center;html=1;fontSize=12;fontStyle=0;aspect=fixed;shape=mxgraph.aws4.resourceIcon;resIcon=mxgraph.aws4.comprehend;" vertex="1" parent="1">
          <mxGeometry x="-1407.5" y="-536" width="78" height="78" as="geometry" />
        </mxCell>
        <mxCell id="mODbw3uTjsmPOtRGQ-nw-22" value="&lt;span style=&quot;font-size: 18px;&quot;&gt;AWS Comprehend&amp;nbsp;&lt;br&gt;(PII)&lt;/span&gt;" style="text;html=1;align=center;verticalAlign=middle;whiteSpace=wrap;rounded=0;" vertex="1" parent="1">
          <mxGeometry x="-1443.5" y="-435" width="150" height="30" as="geometry" />
        </mxCell>
        <mxCell id="mODbw3uTjsmPOtRGQ-nw-23" style="edgeStyle=orthogonalEdgeStyle;rounded=0;orthogonalLoop=1;jettySize=auto;html=1;exitX=1;exitY=0.5;exitDx=0;exitDy=0;exitPerimeter=0;entryX=0;entryY=0.75;entryDx=0;entryDy=0;entryPerimeter=0;" edge="1" parent="1" source="e43Es8xbpWXwMai0kF0n-21" target="e43Es8xbpWXwMai0kF0n-8">
          <mxGeometry relative="1" as="geometry" />
        </mxCell>
        <mxCell id="mODbw3uTjsmPOtRGQ-nw-24" style="edgeStyle=orthogonalEdgeStyle;rounded=0;orthogonalLoop=1;jettySize=auto;html=1;exitX=1;exitY=0.5;exitDx=0;exitDy=0;exitPerimeter=0;entryX=0;entryY=0.5;entryDx=0;entryDy=0;entryPerimeter=0;" edge="1" parent="1" source="e43Es8xbpWXwMai0kF0n-8" target="mODbw3uTjsmPOtRGQ-nw-17">
          <mxGeometry relative="1" as="geometry" />
        </mxCell>
        <mxCell id="mODbw3uTjsmPOtRGQ-nw-25" style="edgeStyle=orthogonalEdgeStyle;rounded=0;orthogonalLoop=1;jettySize=auto;html=1;exitX=1;exitY=0.5;exitDx=0;exitDy=0;exitPerimeter=0;entryX=0;entryY=0.5;entryDx=0;entryDy=0;entryPerimeter=0;" edge="1" parent="1" source="mODbw3uTjsmPOtRGQ-nw-17" target="e43Es8xbpWXwMai0kF0n-10">
          <mxGeometry relative="1" as="geometry" />
        </mxCell>
      </root>
    </mxGraphModel>
  </diagram>
</mxfile>
